HIERARCHY
ROOT Hips
{
	OFFSET 0.00000 0.00000 0.00000
	CHANNELS 6 Xposition Yposition Zposition Zrotation Yrotation Xrotation 
	JOINT LHipJoint
	{
		OFFSET 0 0 0
		CHANNELS 3 Zrotation Yrotation Xrotation
		JOINT LeftHip
		{
			OFFSET 1.29432 -1.88279 0.59910
			CHANNELS 3 Zrotation Yrotation Xrotation
			JOINT LeftKnee
			{
				OFFSET 2.63039 -7.22694 0.00000
				CHANNELS 3 Zrotation Yrotation Xrotation
				JOINT LeftAnkle
				{
					OFFSET 2.70674 -7.43672 0.00000
					CHANNELS 3 Zrotation Yrotation Xrotation
					JOINT LeftToe
					{
						OFFSET 0.15066 -0.41394 2.09027
						CHANNELS 3 Zrotation Yrotation Xrotation
						End Site
						{
							OFFSET 0.00000 -0.00000 1.07518
						}
					}
				}
			}
		}
	}
	JOINT RHipJoint
	{
		OFFSET 0 0 0
		CHANNELS 3 Zrotation Yrotation Xrotation
		JOINT RightHip
		{
			OFFSET -1.37068 -1.88279 0.59910
			CHANNELS 3 Zrotation Yrotation Xrotation
			JOINT RightKnee
			{
				OFFSET -2.57023 -7.06166 0.00000
				CHANNELS 3 Zrotation Yrotation Xrotation
				JOINT RightAnkle
				{
					OFFSET -2.76461 -7.59570 0.00000
					CHANNELS 3 Zrotation Yrotation Xrotation
					JOINT RightToe
					{
						OFFSET -0.24175 -0.64785 2.19719
						CHANNELS 3 Zrotation Yrotation Xrotation
						End Site
						{
							OFFSET -0.00000 -0.00000 1.14803
						}
					}
				}
			}
		}
	}
	JOINT lowerback
	{
		OFFSET 0 0 0
		CHANNELS 3 Zrotation Yrotation Xrotation
		JOINT Chest
		{
			OFFSET -0.03138 2.03983 -0.23106
			CHANNELS 3 Zrotation Yrotation Xrotation
			JOINT Chest2
			{
				OFFSET -0.00325 2.06238 -0.06878
				CHANNELS 3 Zrotation Yrotation Xrotation
				JOINT lowerneck
				{
					OFFSET 0 0 0
					CHANNELS 3 Zrotation Yrotation Xrotation
					JOINT Neck
					{
						OFFSET -0.00002 1.75318 0.18090
						CHANNELS 3 Zrotation Yrotation Xrotation
						JOINT Head
						{
							OFFSET 0.08806 1.75856 -0.25387
							CHANNELS 3 Zrotation Yrotation Xrotation
							End Site
							{
								OFFSET 0.02554 1.78597 -0.10684
							}
						}
					}
				}
				JOINT LeftCollar
				{
					OFFSET 0 0 0
					CHANNELS 3 Zrotation Yrotation Xrotation
					JOINT LeftShoulder
					{
						OFFSET 3.09657 1.33597 -0.04414
CHANNELS 3 Zrotation Xrotation Yrotation
						JOINT LeftElbow
						{
OFFSET 0 -5.342980 -0.000000
CHANNELS 3 Zrotation Xrotation Yrotation
							JOINT LeftWrist
							{
OFFSET 0 -3.672620 -0.000000
CHANNELS 3 Zrotation Xrotation Yrotation
								JOINT lhand
								{
									OFFSET 0 0 0
CHANNELS 3 Zrotation Xrotation Yrotation
									JOINT LFingers
									{
OFFSET 0 -0.599300 -0.000000
CHANNELS 3 Zrotation Xrotation Yrotation
										End Site
										{
OFFSET 0 -0.483170 -0.000000
										}
									}
								}
								JOINT LThumb
								{
OFFSET 0 0.000000 0.000000
CHANNELS 3 Zrotation Xrotation Yrotation
									End Site
									{
OFFSET 0 -0.490550 0.490550
									}
								}
							}
						}
					}
				}
				JOINT RightCollar
				{
					OFFSET 0 0 0
					CHANNELS 3 Zrotation Yrotation Xrotation
					JOINT RightShoulder
					{
						OFFSET -3.16460 1.32273 -0.23382
CHANNELS 3 Zrotation Xrotation Yrotation
						JOINT RightElbow
						{
OFFSET 0 -5.549670 0.033480
CHANNELS 3 Zrotation Xrotation Yrotation
							JOINT RightWrist
							{
OFFSET 0 -3.694010 0.000000
CHANNELS 3 Zrotation Xrotation Yrotation
								JOINT rhand
								{
									OFFSET 0 0 0
CHANNELS 3 Zrotation Xrotation Yrotation
									JOINT RFingers
									{
OFFSET 0 -0.638110 0.000000
CHANNELS 3 Zrotation Xrotation Yrotation
										End Site
										{
OFFSET 0 -0.514460 0.000000
										}
									}
								}
								JOINT RThumb
								{
OFFSET 0 0.000000 0.000000
CHANNELS 3 Zrotation Xrotation Yrotation
									End Site
									{
OFFSET 0 -0.522320 0.522320
									}
								}
							}
						}
					}
				}
			}
		}
	}
}
MOTION
Frames: 6
Frame Time: 0.008333333333333333
-0.234747 18.597318 5.726476 3.912594 13.132399 3.149623 0.000000 0.000000 0.000000 -25.983071 -9.840377 -8.894392 1.079125 6.602532 18.543049 0.070719 -6.863767 -6.366697 0.032081 1.155510 3.176727 0.000000 0.000000 0.000000 9.639166 3.364976 -10.907900 -9.772544 -17.279259 58.724457 -0.003156 -4.757297 3.716880 -0.228755 2.535483 -7.027466 -7.070323 4.410828 3.050977 -2.922974 5.752847 2.662294 0.762895 2.807699 0.660439 12.549372 21.135579 5.544831 -17.903411 30.538801 6.753088 -5.129222 15.142938 5.863707 0.000000 0.000000 0.000000 2.286998 -4.998471 -1.670206 9.248813 -15.555908 1.266132 12.620543 40.087503 -32.027459 0.000000 0.000000 0.000000 -7.125000 0.000000 0.000000 -22.829095 61.180413 9.273247 0.000000 0.000000 0.000000 -0.416086 6.396240 4.077418 -17.545343 -27.571054 -4.336739 -21.334047 11.730270 -23.257865 0.000000 0.000000 0.000000 7.125000 0.000000 0.000000 4.822435 5.283053 4.371365
-0.213834 18.598645 5.798520 3.972679 13.195021 3.225540 0.000000 0.000000 0.000000 -26.109412 -9.785950 -8.585077 1.058637 6.541811 18.364764 0.079135 -6.919458 -6.561695 0.034308 1.194222 3.283319 0.000000 0.000000 0.000000 9.555439 3.436565 -11.464329 -9.909734 -17.358294 59.185622 0.006422 -6.025049 4.028647 -0.068199 1.672756 -4.602346 -7.084839 4.405908 2.984061 -2.919121 5.752092 2.653277 0.779945 2.806553 0.686737 12.541235 21.193671 5.460372 -17.863671 30.636850 6.910019 -5.084643 15.179687 5.933352 0.000000 0.000000 0.000000 2.291046 -4.854009 -1.869935 9.374189 -15.754479 1.300075 12.666636 39.846388 -32.268775 0.000000 0.000000 0.000000 -7.125000 0.000000 0.000000 -22.987100 61.412258 9.464091 0.000000 0.000000 0.000000 -0.421132 6.420902 4.029348 -17.543593 -27.568814 -4.335947 -20.710954 12.247199 -23.123638 0.000000 0.000000 0.000000 7.125000 0.000000 0.000000 5.196145 5.526744 4.691224
-0.194157 18.598341 5.868933 3.967166 13.230834 3.328833 0.000000 0.000000 0.000000 -26.146187 -9.712350 -8.370195 1.043462 6.496285 18.231373 0.088392 -7.000696 -6.782192 0.037646 1.251736 3.441699 0.000000 0.000000 0.000000 9.546131 3.555742 -12.056115 -10.034323 -17.428657 59.602437 0.017804 -5.941281 3.628778 -0.088331 1.906860 -5.248510 -7.063998 4.416480 2.902469 -2.882801 5.771820 2.615895 0.809941 2.816822 0.690329 12.463891 21.256952 5.356320 -17.726385 30.729217 7.102998 -5.006339 15.212111 5.989754 0.000000 0.000000 0.000000 2.233076 -4.704482 -1.970092 9.522148 -15.988431 1.340492 12.906759 39.816847 -32.309192 0.000000 0.000000 0.000000 -7.125000 0.000000 0.000000 -22.767766 61.507964 9.420285 0.000000 0.000000 0.000000 -0.437420 6.487369 3.961413 -17.561955 -27.592689 -4.344445 -20.162924 12.675699 -23.160463 0.000000 0.000000 0.000000 7.125000 0.000000 0.000000 5.540674 5.576873 4.999940
-0.174777 18.596199 5.938941 3.987561 13.242794 3.398374 0.000000 0.000000 0.000000 -26.216957 -9.567405 -8.166617 1.034967 6.470719 18.156454 0.097595 -7.131860 -7.018808 0.039092 1.276363 3.509558 0.000000 0.000000 0.000000 9.511320 3.667291 -12.614635 -10.145146 -17.490365 59.971977 0.028509 -5.814458 3.168923 -0.104164 2.078572 -5.722856 -7.040155 4.451339 2.875805 -2.866576 5.818484 2.576783 0.811892 2.841694 0.662142 12.371809 21.302681 5.306521 -17.586693 30.784019 7.208675 -4.943234 15.233231 6.001693 0.000000 0.000000 0.000000 2.209508 -4.540864 -2.149437 9.670999 -16.223033 1.381802 13.068642 39.763506 -32.339521 0.000000 0.000000 0.000000 -7.125000 0.000000 0.000000 -22.622482 61.575407 9.393166 0.000000 0.000000 0.000000 -0.430098 6.574743 3.874304 -17.555057 -27.583733 -4.341260 -19.838475 12.975221 -23.329485 0.000000 0.000000 0.000000 7.125000 0.000000 0.000000 5.757281 5.454427 5.211375
-0.155656 18.592455 6.008596 4.030507 13.233992 3.438538 0.000000 0.000000 0.000000 -26.317317 -9.360363 -7.972879 1.032286 6.462524 18.132426 0.106751 -7.306477 -7.269454 0.038889 1.272367 3.498632 0.000000 0.000000 0.000000 9.454312 3.772203 -13.144202 -10.243988 -17.544541 60.300370 0.038626 -5.650160 2.656858 -0.116253 2.195978 -6.047658 -7.013700 4.507336 2.896949 -2.867841 5.888594 2.536164 0.789433 2.879279 0.606297 12.266897 21.333133 5.303941 -17.444905 30.806124 7.238368 -4.893357 15.244511 5.974934 0.000000 0.000000 0.000000 2.215881 -4.364983 -2.397705 9.820628 -16.458199 1.423888 13.162425 39.689451 -32.361070 0.000000 0.000000 0.000000 -7.125000 0.000000 0.000000 -22.541648 61.618252 9.380570 0.000000 0.000000 0.000000 -0.402226 6.680313 3.770505 -17.526174 -27.546199 -4.327906 -19.708625 13.162484 -23.613567 0.000000 0.000000 0.000000 7.125000 0.000000 0.000000 5.862547 5.181778 5.338139
-0.139131 18.591562 6.081213 4.030653 13.252868 3.411158 0.000000 0.000000 0.000000 -26.360995 -9.055448 -7.766417 1.033809 6.467138 18.145923 0.109587 -7.563337 -7.445981 0.034568 1.193182 3.280646 0.000000 0.000000 0.000000 9.497885 3.867297 -13.588225 -10.323165 -17.587488 60.562856 0.050972 -5.562942 2.039669 -0.134607 2.357962 -6.496346 -6.983069 4.546066 2.932482 -2.861995 5.935738 2.514955 0.772672 2.904703 0.563741 12.312674 21.342565 5.416304 -17.460549 30.823207 7.182630 -4.914269 15.262535 5.951871 0.000000 0.000000 0.000000 2.293410 -4.221011 -2.684908 9.917779 -16.610728 1.451387 12.970742 39.465496 -32.660778 0.000000 0.000000 0.000000 -7.125000 0.000000 0.000000 -23.022521 61.841185 9.721633 0.000000 0.000000 0.000000 -0.370235 6.786587 3.783087 -17.493453 -27.503672 -4.312774 -19.501555 13.290244 -23.749188 0.000000 0.000000 0.000000 7.125000 0.000000 0.000000 6.002572 5.074573 5.478954
